<?xml version="1.0" encoding="UTF-8" standalone="no"?><svg xmlns="http://www.w3.org/2000/svg" xmlns:xlink="http://www.w3.org/1999/xlink" contentScriptType="application/ecmascript" contentStyleType="text/css" height="833px" preserveAspectRatio="none" style="width:952px;height:833px;" version="1.1" viewBox="0 0 952 833" width="952px" zoomAndPan="magnify"><defs><filter height="300%" id="fbr57qxbb8ggx" width="300%" x="-1" y="-1"><feGaussianBlur result="blurOut" stdDeviation="2.0"/><feColorMatrix in="blurOut" result="blurOut2" type="matrix" values="0 0 0 0 0 0 0 0 0 0 0 0 0 0 0 0 0 0 .4 0"/><feOffset dx="4.0" dy="4.0" in="blurOut2" result="blurOut3"/><feBlend in="SourceGraphic" in2="blurOut3" mode="normal"/></filter></defs><g><rect fill="#FFFFFF" filter="url(#fbr57qxbb8ggx)" height="259.6484" style="stroke:#000000;stroke-width:2.0;" width="757.5" x="180.5" y="410.125"/><rect fill="#FFFFFF" height="180.5938" style="stroke:none;stroke-width:1.0;" width="757.5" x="180.5" y="489.1797"/><line style="stroke:#A80036;stroke-width:1.0;stroke-dasharray:5.0,5.0;" x1="22" x2="22" y1="89.6094" y2="747.4766"/><line style="stroke:#A80036;stroke-width:1.0;stroke-dasharray:5.0,5.0;" x1="228.5" x2="228.5" y1="89.6094" y2="747.4766"/><line style="stroke:#A80036;stroke-width:1.0;stroke-dasharray:5.0,5.0;" x1="570" x2="570" y1="89.6094" y2="747.4766"/><line style="stroke:#A80036;stroke-width:1.0;stroke-dasharray:5.0,5.0;" x1="804" x2="804" y1="89.6094" y2="747.4766"/><line style="stroke:#A80036;stroke-width:1.0;stroke-dasharray:5.0,5.0;" x1="890" x2="890" y1="89.6094" y2="747.4766"/><text fill="#000000" font-family="sans-serif" font-size="14" lengthAdjust="spacing" textLength="29" x="5" y="86.5332">User</text><ellipse cx="22.5" cy="15" fill="#FEFECE" filter="url(#fbr57qxbb8ggx)" rx="8" ry="8" style="stroke:#A80036;stroke-width:2.0;"/><path d="M22.5,23 L22.5,50 M9.5,31 L35.5,31 M22.5,50 L9.5,65 M22.5,50 L35.5,65 " fill="none" filter="url(#fbr57qxbb8ggx)" style="stroke:#A80036;stroke-width:2.0;"/><text fill="#000000" font-family="sans-serif" font-size="14" lengthAdjust="spacing" textLength="29" x="5" y="761.0098">User</text><ellipse cx="22.5" cy="774.0859" fill="#FEFECE" filter="url(#fbr57qxbb8ggx)" rx="8" ry="8" style="stroke:#A80036;stroke-width:2.0;"/><path d="M22.5,782.0859 L22.5,809.0859 M9.5,790.0859 L35.5,790.0859 M22.5,809.0859 L9.5,824.0859 M22.5,809.0859 L35.5,824.0859 " fill="none" filter="url(#fbr57qxbb8ggx)" style="stroke:#A80036;stroke-width:2.0;"/><rect fill="#FEFECE" filter="url(#fbr57qxbb8ggx)" height="31.6094" style="stroke:#A80036;stroke-width:1.5;" width="72" x="190.5" y="53"/><text fill="#000000" font-family="sans-serif" font-size="14" lengthAdjust="spacing" textLength="58" x="197.5" y="74.5332">Frontend</text><rect fill="#FEFECE" filter="url(#fbr57qxbb8ggx)" height="31.6094" style="stroke:#A80036;stroke-width:1.5;" width="72" x="190.5" y="746.4766"/><text fill="#000000" font-family="sans-serif" font-size="14" lengthAdjust="spacing" textLength="58" x="197.5" y="768.0098">Frontend</text><rect fill="#FEFECE" filter="url(#fbr57qxbb8ggx)" height="31.6094" style="stroke:#A80036;stroke-width:1.5;" width="69" x="534" y="53"/><text fill="#000000" font-family="sans-serif" font-size="14" lengthAdjust="spacing" textLength="55" x="541" y="74.5332">Backend</text><rect fill="#FEFECE" filter="url(#fbr57qxbb8ggx)" height="31.6094" style="stroke:#A80036;stroke-width:1.5;" width="69" x="534" y="746.4766"/><text fill="#000000" font-family="sans-serif" font-size="14" lengthAdjust="spacing" textLength="55" x="541" y="768.0098">Backend</text><text fill="#000000" font-family="sans-serif" font-size="14" lengthAdjust="spacing" textLength="69" x="767" y="86.5332">Datenbank</text><path d="M786.5,36 C786.5,26 804.5,26 804.5,26 C804.5,26 822.5,26 822.5,36 L822.5,62 C822.5,72 804.5,72 804.5,72 C804.5,72 786.5,72 786.5,62 L786.5,36 " fill="#FEFECE" filter="url(#fbr57qxbb8ggx)" style="stroke:#000000;stroke-width:1.5;"/><path d="M786.5,36 C786.5,46 804.5,46 804.5,46 C804.5,46 822.5,46 822.5,36 " fill="none" style="stroke:#000000;stroke-width:1.5;"/><text fill="#000000" font-family="sans-serif" font-size="14" lengthAdjust="spacing" textLength="69" x="767" y="761.0098">Datenbank</text><path d="M786.5,774.0859 C786.5,764.0859 804.5,764.0859 804.5,764.0859 C804.5,764.0859 822.5,764.0859 822.5,774.0859 L822.5,800.0859 C822.5,810.0859 804.5,810.0859 804.5,810.0859 C804.5,810.0859 786.5,810.0859 786.5,800.0859 L786.5,774.0859 " fill="#FEFECE" filter="url(#fbr57qxbb8ggx)" style="stroke:#000000;stroke-width:1.5;"/><path d="M786.5,774.0859 C786.5,784.0859 804.5,784.0859 804.5,784.0859 C804.5,784.0859 822.5,784.0859 822.5,774.0859 " fill="none" style="stroke:#000000;stroke-width:1.5;"/><rect fill="#FEFECE" filter="url(#fbr57qxbb8ggx)" height="31.6094" style="stroke:#A80036;stroke-width:1.5;" width="72" x="852" y="53"/><text fill="#000000" font-family="sans-serif" font-size="14" lengthAdjust="spacing" textLength="58" x="859" y="74.5332">YouTube</text><rect fill="#FEFECE" filter="url(#fbr57qxbb8ggx)" height="31.6094" style="stroke:#A80036;stroke-width:1.5;" width="72" x="852" y="746.4766"/><text fill="#000000" font-family="sans-serif" font-size="14" lengthAdjust="spacing" textLength="58" x="859" y="768.0098">YouTube</text><polygon fill="#A80036" points="216.5,117.9609,226.5,121.9609,216.5,125.9609,220.5,121.9609" style="stroke:#A80036;stroke-width:1.0;"/><line style="stroke:#A80036;stroke-width:1.0;" x1="22.5" x2="222.5" y1="121.9609" y2="121.9609"/><text fill="#000000" font-family="sans-serif" font-size="13" lengthAdjust="spacing" textLength="68" x="29.5" y="117.1045">Seite öffnen</text><polygon fill="#A80036" points="558.5,148.3125,568.5,152.3125,558.5,156.3125,562.5,152.3125" style="stroke:#A80036;stroke-width:1.0;"/><line style="stroke:#A80036;stroke-width:1.0;" x1="228.5" x2="564.5" y1="152.3125" y2="152.3125"/><text fill="#000000" font-family="sans-serif" font-size="13" lengthAdjust="spacing" textLength="73" x="235.5" y="147.4561">GET /rennen</text><polygon fill="#A80036" points="792.5,178.6641,802.5,182.6641,792.5,186.6641,796.5,182.6641" style="stroke:#A80036;stroke-width:1.0;"/><line style="stroke:#A80036;stroke-width:1.0;" x1="570.5" x2="798.5" y1="182.6641" y2="182.6641"/><text fill="#000000" font-family="sans-serif" font-size="13" lengthAdjust="spacing" textLength="210" x="577.5" y="177.8076">Lade verfügbare Rennen + Schweine</text><polygon fill="#A80036" points="581.5,209.0156,571.5,213.0156,581.5,217.0156,577.5,213.0156" style="stroke:#A80036;stroke-width:1.0;"/><line style="stroke:#A80036;stroke-width:1.0;stroke-dasharray:2.0,2.0;" x1="575.5" x2="803.5" y1="213.0156" y2="213.0156"/><text fill="#000000" font-family="sans-serif" font-size="13" lengthAdjust="spacing" textLength="77" x="587.5" y="208.1592">Daten zurück</text><polygon fill="#A80036" points="239.5,239.3672,229.5,243.3672,239.5,247.3672,235.5,243.3672" style="stroke:#A80036;stroke-width:1.0;"/><line style="stroke:#A80036;stroke-width:1.0;stroke-dasharray:2.0,2.0;" x1="233.5" x2="569.5" y1="243.3672" y2="243.3672"/><text fill="#000000" font-family="sans-serif" font-size="13" lengthAdjust="spacing" textLength="172" x="245.5" y="238.5107">Rennen + Schweine anzeigen</text><polygon fill="#A80036" points="216.5,269.7188,226.5,273.7188,216.5,277.7188,220.5,273.7188" style="stroke:#A80036;stroke-width:1.0;"/><line style="stroke:#A80036;stroke-width:1.0;" x1="22.5" x2="222.5" y1="273.7188" y2="273.7188"/><text fill="#000000" font-family="sans-serif" font-size="13" lengthAdjust="spacing" textLength="114" x="29.5" y="268.8623">Schwein auswählen</text><polygon fill="#A80036" points="558.5,300.0703,568.5,304.0703,558.5,308.0703,562.5,304.0703" style="stroke:#A80036;stroke-width:1.0;"/><line style="stroke:#A80036;stroke-width:1.0;" x1="228.5" x2="564.5" y1="304.0703" y2="304.0703"/><text fill="#000000" font-family="sans-serif" font-size="13" lengthAdjust="spacing" textLength="229" x="235.5" y="299.2139">POST /selectPig (userId, pigId, gameId)</text><polygon fill="#A80036" points="792.5,330.4219,802.5,334.4219,792.5,338.4219,796.5,334.4219" style="stroke:#A80036;stroke-width:1.0;"/><line style="stroke:#A80036;stroke-width:1.0;" x1="570.5" x2="798.5" y1="334.4219" y2="334.4219"/><text fill="#000000" font-family="sans-serif" font-size="13" lengthAdjust="spacing" textLength="111" x="577.5" y="329.5654">Speichere Auswahl</text><polygon fill="#A80036" points="581.5,360.7734,571.5,364.7734,581.5,368.7734,577.5,364.7734" style="stroke:#A80036;stroke-width:1.0;"/><line style="stroke:#A80036;stroke-width:1.0;stroke-dasharray:2.0,2.0;" x1="575.5" x2="803.5" y1="364.7734" y2="364.7734"/><text fill="#000000" font-family="sans-serif" font-size="13" lengthAdjust="spacing" textLength="19" x="587.5" y="359.917">OK</text><polygon fill="#A80036" points="239.5,391.125,229.5,395.125,239.5,399.125,235.5,395.125" style="stroke:#A80036;stroke-width:1.0;"/><line style="stroke:#A80036;stroke-width:1.0;stroke-dasharray:2.0,2.0;" x1="233.5" x2="569.5" y1="395.125" y2="395.125"/><text fill="#000000" font-family="sans-serif" font-size="13" lengthAdjust="spacing" textLength="318" x="245.5" y="390.2686">Bestätigung &amp; Startsignal für Rennen mit Video-Embed</text><path d="M180.5,410.125 L246.5,410.125 L246.5,418.125 L236.5,428.125 L180.5,428.125 L180.5,410.125 " fill="#EEEEEE" style="stroke:#000000;stroke-width:1.0;"/><rect fill="none" height="259.6484" style="stroke:#000000;stroke-width:2.0;" width="757.5" x="180.5" y="410.125"/><text fill="#000000" font-family="sans-serif" font-size="13" font-weight="bold" lengthAdjust="spacing" textLength="21" x="195.5" y="424.6201">par</text><text fill="#000000" font-family="sans-serif" font-size="11" font-weight="bold" lengthAdjust="spacing" textLength="97" x="261.5" y="423.5439">[Video abspielen]</text><polygon fill="#A80036" points="878,446.8281,888,450.8281,878,454.8281,882,450.8281" style="stroke:#A80036;stroke-width:1.0;"/><line style="stroke:#A80036;stroke-width:1.0;" x1="228.5" x2="884" y1="450.8281" y2="450.8281"/><text fill="#000000" font-family="sans-serif" font-size="13" lengthAdjust="spacing" textLength="147" x="235.5" y="445.9717">Video laden (Race Video)</text><polygon fill="#A80036" points="239.5,477.1797,229.5,481.1797,239.5,485.1797,235.5,481.1797" style="stroke:#A80036;stroke-width:1.0;"/><line style="stroke:#A80036;stroke-width:1.0;stroke-dasharray:2.0,2.0;" x1="233.5" x2="889" y1="481.1797" y2="481.1797"/><text fill="#000000" font-family="sans-serif" font-size="13" lengthAdjust="spacing" textLength="79" x="245.5" y="476.3232">Video-Stream</text><line style="stroke:#000000;stroke-width:1.0;stroke-dasharray:2.0,2.0;" x1="180.5" x2="938" y1="490.1797" y2="490.1797"/><text fill="#000000" font-family="sans-serif" font-size="11" font-weight="bold" lengthAdjust="spacing" textLength="113" x="185.5" y="501.5986">[Rennen auswerten]</text><polygon fill="#A80036" points="558.5,523.3672,568.5,527.3672,558.5,531.3672,562.5,527.3672" style="stroke:#A80036;stroke-width:1.0;"/><line style="stroke:#A80036;stroke-width:1.0;" x1="228.5" x2="564.5" y1="527.3672" y2="527.3672"/><text fill="#000000" font-family="sans-serif" font-size="13" lengthAdjust="spacing" textLength="191" x="235.5" y="522.5107">Anfrage zur Gewinnerberechnung</text><polygon fill="#A80036" points="792.5,553.7188,802.5,557.7188,792.5,561.7188,796.5,557.7188" style="stroke:#A80036;stroke-width:1.0;"/><line style="stroke:#A80036;stroke-width:1.0;" x1="570.5" x2="798.5" y1="557.7188" y2="557.7188"/><text fill="#000000" font-family="sans-serif" font-size="13" lengthAdjust="spacing" textLength="176" x="577.5" y="552.8623">Hole Renn-Ergebnis / Attribute</text><polygon fill="#A80036" points="581.5,584.0703,571.5,588.0703,581.5,592.0703,577.5,588.0703" style="stroke:#A80036;stroke-width:1.0;"/><line style="stroke:#A80036;stroke-width:1.0;stroke-dasharray:2.0,2.0;" x1="575.5" x2="803.5" y1="588.0703" y2="588.0703"/><text fill="#000000" font-family="sans-serif" font-size="13" lengthAdjust="spacing" textLength="34" x="587.5" y="583.2139">Daten</text><line style="stroke:#A80036;stroke-width:1.0;" x1="570.5" x2="612.5" y1="618.4219" y2="618.4219"/><line style="stroke:#A80036;stroke-width:1.0;" x1="612.5" x2="612.5" y1="618.4219" y2="631.4219"/><line style="stroke:#A80036;stroke-width:1.0;" x1="571.5" x2="612.5" y1="631.4219" y2="631.4219"/><polygon fill="#A80036" points="581.5,627.4219,571.5,631.4219,581.5,635.4219,577.5,631.4219" style="stroke:#A80036;stroke-width:1.0;"/><text fill="#000000" font-family="sans-serif" font-size="13" lengthAdjust="spacing" textLength="117" x="577.5" y="613.5654">Bestimme Gewinner</text><polygon fill="#A80036" points="792.5,657.7734,802.5,661.7734,792.5,665.7734,796.5,661.7734" style="stroke:#A80036;stroke-width:1.0;"/><line style="stroke:#A80036;stroke-width:1.0;" x1="570.5" x2="798.5" y1="661.7734" y2="661.7734"/><text fill="#000000" font-family="sans-serif" font-size="13" lengthAdjust="spacing" textLength="116" x="577.5" y="656.917">Speichere Gewinner</text><polygon fill="#A80036" points="239.5,695.125,229.5,699.125,239.5,703.125,235.5,699.125" style="stroke:#A80036;stroke-width:1.0;"/><line style="stroke:#A80036;stroke-width:1.0;stroke-dasharray:2.0,2.0;" x1="233.5" x2="569.5" y1="699.125" y2="699.125"/><text fill="#000000" font-family="sans-serif" font-size="13" lengthAdjust="spacing" textLength="110" x="245.5" y="694.2686">Gewinner anzeigen</text><polygon fill="#A80036" points="33.5,725.4766,23.5,729.4766,33.5,733.4766,29.5,729.4766" style="stroke:#A80036;stroke-width:1.0;"/><line style="stroke:#A80036;stroke-width:1.0;stroke-dasharray:2.0,2.0;" x1="27.5" x2="227.5" y1="729.4766" y2="729.4766"/><text fill="#000000" font-family="sans-serif" font-size="13" lengthAdjust="spacing" textLength="182" x="39.5" y="724.6201">Anzeige Gewinner + Belohnung</text><!--MD5=[7550af306902dfc4b0690908c7bbb990]
@startuml
actor User
participant Frontend
participant Backend
database Datenbank
participant YouTube

User -> Frontend: Seite öffnen
Frontend -> Backend: GET /rennen
Backend -> Datenbank: Lade verfügbare Rennen + Schweine
Datenbank - -> Backend: Daten zurück
Backend - -> Frontend: Rennen + Schweine anzeigen

User -> Frontend: Schwein auswählen
Frontend -> Backend: POST /selectPig (userId, pigId, gameId)
Backend -> Datenbank: Speichere Auswahl
Datenbank - -> Backend: OK
Backend - -> Frontend: Bestätigung & Startsignal für Rennen mit Video-Embed

    par Video abspielen
        Frontend -> YouTube: Video laden (Race Video)
        YouTube - -> Frontend: Video-Stream
    else Rennen auswerten
        Frontend -> Backend: Anfrage zur Gewinnerberechnung
        Backend -> Datenbank: Hole Renn-Ergebnis / Attribute
        Datenbank - -> Backend: Daten
        Backend -> Backend: Bestimme Gewinner
        Backend -> Datenbank: Speichere Gewinner
    end

Backend - -> Frontend: Gewinner anzeigen
Frontend - -> User: Anzeige Gewinner + Belohnung
@enduml

PlantUML version 1.2021.00(Sun Jan 10 11:25:05 CET 2021)
(MIT source distribution)
Java Runtime: OpenJDK Runtime Environment
JVM: OpenJDK 64-Bit Server VM
Default Encoding: UTF-8
Language: de
Country: DE
--></g></svg>